<svg width="700" height="540" viewBox="0 0 700 540" fill="none" xmlns="http://www.w3.org/2000/svg">
<path d="M384 402C384.667 401.833 386 402.5 391.5 407.5C390.5 408.5 390 426.5 389.5 427C389 427.5 376 426 375.5 426C375 426 365 424.5 364.5 424.5C364 424.5 359 422.5 357.5 422C356 421.5 350 419 348.5 416.5C347.572 414.954 347 413.303 347 411.5C347 409.5 347.5 408 348 406.5C348.5 405 351 404.5 351.5 404C352 403.5 357 404.5 357.5 405C358 405.5 363.5 407 363.5 407.5C363.5 408 370 408.5 370.5 408.5C371 408.5 373 408 373 407.5C373 407 373.5 407 373 406C372.5 405 369.5 403 369 403C368.5 403 366 401 365.5 400.5C365.146 400.147 363 399 363 398.5V398.499C363 397.999 363 396.5 363.5 396C363.9 395.6 365 395 365.5 395L369.5 396.5C371.667 397.667 378.8 400.4 384 402Z" fill="#FEB990"/>
<path d="M380.5 479.5C379.387 479.601 363.5 481 363 481C366 481 374.5 481.5 376 481.5C377.5 481.5 386.026 484.342 386.5 484.5C388 485 391.5 488.5 392 491C392.196 491.981 392.07 494.29 391.5 496C391 497.5 390.5 498.5 388.5 500C387.934 500.424 381 502.5 379.5 503C378.651 503.283 362.5 503.167 359 503.5C361 504 371.515 504.724 374 505C378.5 505.5 386 505 386.5 505C387 505 392.5 505 395.5 504.5C398 504.083 399.5 503.5 402 502C404.281 500.631 406.5 499 407.5 495.5C407.807 494.425 408 493.5 408 491.5C408 489.5 405.5 487.5 405 485.5C404.5 483.5 398.5 480.5 397 480C395.658 479.553 386 479 380.5 479.5Z" fill="#F86E61"/>
<path d="M342 483C353.2 481.8 357.167 481.5 357.5 481.5C360.167 481.5 362.6 481 363 481M363 481C363.5 481 379.387 479.601 380.5 479.5C386 479 395.658 479.553 397 480C398.5 480.5 404.5 483.5 405 485.5C405.5 487.5 408 489.5 408 491.5C408 493.5 407.807 494.425 407.5 495.5C406.5 499 404.281 500.631 402 502C399.5 503.5 398 504.083 395.5 504.5C392.5 505 387 505 386.5 505C386 505 378.5 505.5 374 505C371.515 504.724 361 504 359 503.5C362.5 503.167 378.651 503.283 379.5 503C381 502.5 387.934 500.424 388.5 500C390.5 498.5 391 497.5 391.5 496C392.07 494.29 392.196 491.981 392 491C391.5 488.5 388 485 386.5 484.5C386.026 484.342 377.5 481.5 376 481.5C374.5 481.5 366 481 363 481Z" stroke="#F86E61"/>
<path d="M341.001 494.5C341.501 493.333 342 489.6 342 484C345 483.667 350.708 483.113 351.5 483C361.999 481.5 370.501 482 372.001 482C373.501 482 381.569 482.776 383.5 483.5C387.5 485 389.501 487.5 390.501 489C391.5 490.5 391.499 492.5 391 495.5C390.501 498.5 388 499.5 386.001 500.5C384.157 501.422 371 504 369.501 504C366 504 346.999 503 345.5 503C342.999 503 336.501 502.5 336.5 501.5C336.5 501 340.334 496.833 341.001 494.5Z" fill="#FEB990" stroke="#FEB990"/>
<path d="M353 481C351.882 481 346.167 481.833 342 482.5L342 480.5C342 479 340.5 478.5 340 478C339.21 477.209 332.184 473.449 332.5 472.5C333 471 334.5 472 334.5 471.5C334.5 471.1 337.833 471.667 339.5 472C342.333 472.333 348.1 473.1 348.5 473.5C349 474 355.5 474 356 474C356.5 474 360.5 473.5 361.5 474.5C362.5 475.5 363.5 479.5 362.5 480C362.053 480.224 355 481 353 481Z" fill="#FEB990" stroke="#FEB990"/>
<path d="M219 404C221.376 404.528 229.5 405 235 404C235.4 404.8 239.167 408.333 241 410C252.667 416.5 275.9 429.6 275.5 430C275 430.5 295.106 440.053 296 440.5C298 441.5 318.5 447 317.5 448C316.5 449 325.388 451.694 327 452.5C329 453.5 337.5 457.5 341 457.5C343.55 457.5 355.236 452.133 356.5 451.5C357.5 451 364.172 450.916 367.5 450.5C371.5 450 402.501 445 403.5 444.5C404.5 444 414 438 414.5 438C415 438 413.882 432.5 415 432.5H415.001C416.004 432.5 422.501 432.5 423.5 432C424.5 431.5 438 423.5 439.5 422C441 420.5 459 413 460 412.5C461 412 463 403.5 464 403C465 402.5 501.286 403.684 503.5 404C507 404.5 513.292 407.739 515.5 410.5C517.5 413 521.5 422 522 425.5C522.5 429 522.5 438 520.5 442.5C518.47 447.069 513.5 452.5 511.5 454C507.813 456.767 501 462.5 488 469C487.553 469.224 445 484.5 444 484.5C443.293 484.5 409.224 491.671 409 491C408.5 489.5 405.44 484.557 404.5 483.5C400.5 479 392.5 478.5 390.5 478.5C384 478.5 362.5 480.707 362.5 480C362.5 479 362.207 473.466 361.5 473.5C351 474 336 471 335 471C333.882 471 331 473.5 332 473C333 472.5 341.139 478.476 341.5 481C342.5 488 341 493.5 340 495.5C339.078 497.344 335.5 503.5 334 504C332.94 504.354 303 498.5 300.5 498C298.479 497.596 257 488 255 487.5C253.252 487.063 227.5 477 226 476.5C224.5 476 203.5 463.5 201 462C198.814 460.688 188.71 450.419 187.5 448C186 445 184 438.5 183.5 433.5C183.2 430.5 184.5 422 185.5 419.5C186.429 417.179 190 411.5 192 409.5C193.768 407.732 198.5 405.5 200 405C200.475 404.842 210 402 219 404Z" fill="#012869" stroke="#012869"/>
<path d="M286 333C281.6 332.6 276.167 336.5 274 339L326.5 351.5C328 356 334.5 357 342 356C342.833 356.333 346.3 355.7 351.5 352.5C370.5 348.833 409 341.3 411 340.5C413.5 339.5 405 335.5 404.5 333C404 330.5 394.5 332 393.5 332C392.5 332 373 338 370 337.5C367 337 343.5 349 342.5 350C341.5 351 337 351 335 350C333 349 309.872 336.291 307.5 335.5C294 331 291.5 333.5 286 333Z" fill="#F5F5F5" stroke="#F5F5F5" stroke-width="3" stroke-linecap="round"/>
<path d="M158.999 114.5C136.975 72.5 89 81 90.9986 1.00001C189.4 0.20001 477.333 0.666677 609 1.00001C609 3.00001 609 12.5 608.5 21.5C608.029 29.9869 602 47 599 54C595.824 61.4104 584.5 76.5 578.5 82.5C572.5 88.5 556.5 97.5 547.5 113C543.844 119.296 537.694 133.223 536.5 138C535 144 528.5 178 527 182C519.321 202.477 505.388 211.622 489.5 220.5C472.5 230 465 238.5 462 242.5C460.079 245.061 450.344 259.649 445 269C439 279.5 421 291 417 292.5C413.226 293.915 398.384 296.961 382 291.5C364 285.5 352.5 252.5 353 243C353.325 236.824 353 225 348.5 223C332.153 215.735 327.237 207.821 326.5 209C321.5 217 319 217 315 220C313.333 222.333 311 226 311 229.5C311 234.243 311.5 235 312 237.5C312.5 240 311.95 249.401 314.5 254.5C316.5 258.5 320.5 262.5 322.5 264.5C326.5 267.5 328.5 267.5 327.5 270C307 271.5 296 272.846 273 287C270.833 288.333 265.5 285 257.5 272C249.5 259 253.5 254.5 238.5 231.5C229 219 223 218 204.5 203.5C163 164.5 176 157.5 158.999 114.5Z" fill="#012869"/>
<path d="M331.499 280C338.148 282.66 352.5 284 365 276.5C360.5 269 357 260.5 356 255C355.8 253.9 352.5 239.023 352.5 233.5C352.5 230 352 227.5 349.5 223.5C339 218.5 335 216.5 327 208.5C325.5 210.5 322.167 214.5 320.5 216C318.333 217.833 315.875 218.5 314 221C311 225 311 226.5 311 235C311 236.5 312.499 236.5 311.999 240C311.5 260 324 265.5 327.5 268.5C327.5 272.5 326.499 278 331.499 280Z" fill="#FEB990"/>
<path d="M324 236C318.5 238 315.5 237.5 313.5 236" stroke="#012869" stroke-linecap="round"/>
<path d="M347 232.5C343.5 235 339 235.5 336 235" stroke="#012869" stroke-linecap="round"/>
<path d="M319 247C318.833 246 317.5 241 312 242C311.499 243.5 313 251.5 314.5 254.5C315.5 254.5 319.5 252.5 319 247Z" fill="#F86E61"/>
<circle cx="347" cy="243" r="6" fill="#F86E61"/>
<path d="M329 235.5C329.5 240.5 328.666 242.333 328.5 242.5C326 244.5 326.167 245.5 326 245.5C325.5 247 325.617 248.947 327 249.5C329.5 250.5 331.333 249.5 333 249" stroke="#F86E61" stroke-linecap="round"/>
<path d="M326 255.5C328.5 256.5 335 257 338 253" stroke="#F86E61" stroke-linecap="round"/>
<path d="M270.497 376.5C271.032 382.144 280.5 398 289.5 409.5C291.168 410.5 288.618 413.147 289.5 413C292.5 412.5 304 414 307 415.5C307.632 415.816 311.5 417.5 314.5 418.5C316.21 419.07 320.342 420.026 320.5 420.5C321 422 320 423.5 319 424C317.735 424.632 314 424.5 313.5 424.5C313 424.5 308.5 423.5 308 423.5C307.5 423.5 307 424.5 307 425.5C307 426.3 309.333 427.833 310.5 428.5C314.333 430.167 322.2 433.6 323 434C324 434.5 327.5 436 327.5 439.5C327.5 442.541 325.5 444 324.5 444.5C322.603 445.449 319 446.5 318.5 446.5C318.1 446.5 318.333 447.5 318.5 448C319.5 449 326 451 327 451.5C327.632 451.816 333.5 455 336 456C338 456.8 342.5 457 346 455.5C348.667 454.5 353 452.5 355 451.5C356.265 450.868 371 449 372.5 449C374 449 400 445 402.5 444C403.893 443.443 412 439 413.5 438C414.7 437.2 414.333 434.167 414 432.5C412.5 432.333 410.55 432 408 432C403.5 432 396 430.5 394 430C392 429.5 389 426.5 389 427C389 427.5 367.5 425.5 365 425C362.549 424.51 351.5 420.5 348.5 417C347.58 415.926 347 411 347 409C347 407.4 348.167 406 349 405C350 404 352 403.5 354 403.5C355.118 403.5 362 406 364 407.5C365.442 408.582 371 408.5 372 408C373.414 407.293 373.5 406.5 373 406C372.5 405.5 371.894 404.947 371 404.5C369 403.5 366.167 401.833 364 400C363.5 399.5 362 398 363 396C363.5 395 365 394.5 366.5 395C371.833 397.333 382.8 402 384 402C385.2 402 389.667 405.833 391.5 407.5C396.667 404.333 405.767 398.013 406.5 397.5C411.5 394 417 388.5 417.5 386.5C417.597 386.112 417 373 417 366V340C399.833 343.833 363.065 351.806 353.327 353.029C350.488 353.523 350.162 354.129 347 356.5C345 358 332 359 327.997 355.5C327.497 354.667 325.397 352.7 320.997 351.5C318.497 350.833 305.697 347.6 274.497 340C270.997 338.5 268.997 337.749 268.497 339C267.997 342 268.93 354.002 268.997 355C269.5 362.5 269.5 366 270.497 376.5Z" fill="#01609A"/>
<path d="M353.5 353C353.441 353.01 353.384 353.02 353.327 353.029M353.327 353.029C350.488 353.523 350.162 354.129 347 356.5C345 358 332 359 327.997 355.5C327.497 354.667 325.397 352.7 320.997 351.5C318.497 350.833 305.697 347.6 274.497 340C270.997 338.5 268.997 337.749 268.497 339C267.997 342 268.93 354.002 268.997 355C269.5 362.5 269.5 366 270.497 376.5C271.032 382.144 280.5 398 289.5 409.5C291.168 410.5 288.618 413.147 289.5 413C292.5 412.5 304 414 307 415.5C307.632 415.816 311.5 417.5 314.5 418.5C316.21 419.07 320.342 420.026 320.5 420.5C321 422 320 423.5 319 424C317.735 424.632 314 424.5 313.5 424.5C313 424.5 308.5 423.5 308 423.5C307.5 423.5 307 424.5 307 425.5C307 426.3 309.333 427.833 310.5 428.5C314.333 430.167 322.2 433.6 323 434C324 434.5 327.5 436 327.5 439.5C327.5 442.541 325.5 444 324.5 444.5C322.603 445.449 319 446.5 318.5 446.5C318.1 446.5 318.333 447.5 318.5 448C319.5 449 326 451 327 451.5C327.632 451.816 333.5 455 336 456C338 456.8 342.5 457 346 455.5C348.667 454.5 353 452.5 355 451.5C356.265 450.868 371 449 372.5 449C374 449 400 445 402.5 444C403.893 443.443 412 439 413.5 438C414.7 437.2 414.333 434.167 414 432.5C412.5 432.333 410.55 432 408 432C403.5 432 396 430.5 394 430C392 429.5 389 426.5 389 427C389 427.5 367.5 425.5 365 425C362.549 424.51 351.5 420.5 348.5 417C347.58 415.926 347 411 347 409C347 407.4 348.167 406 349 405C350 404 352 403.5 354 403.5C355.118 403.5 362 406 364 407.5C365.442 408.582 371 408.5 372 408C373.414 407.293 373.5 406.5 373 406C372.5 405.5 371.894 404.947 371 404.5C369 403.5 366.167 401.833 364 400C363.5 399.5 362 398 363 396C363.5 395 365 394.5 366.5 395C371.833 397.333 382.8 402 384 402C385.2 402 389.667 405.833 391.5 407.5C396.667 404.333 405.767 398.013 406.5 397.5C411.5 394 417 388.5 417.5 386.5C417.597 386.112 417 373 417 366V340C399.833 343.833 363.065 351.806 353.327 353.029Z" stroke="#01609A" stroke-linecap="round"/>
<path d="M285.5 371.5C300 374.5 301 374.5 308.5 376" stroke="#F5F5F5" stroke-width="3" stroke-linecap="round"/>
<path d="M279 359C309.5 366 310.5 366 317 367.5" stroke="#F5F5F5" stroke-width="3" stroke-linecap="round"/>
<path d="M281 429C280.167 428.5 279.8 429.7 277 430.5L289.5 437.5L297.5 441L281 429Z" fill="#01609A"/>
<path d="M298.5 413.5C298 413.333 292.5 412.5 289.5 413C289.5 413.5 280 428 279.5 428.5C279 429 301 443.5 303.5 444.5C304.813 445.025 310 448.5 317.5 448C320 447.833 326.417 444 327 440.5C327.339 438.466 326.5 437.5 325.5 436C324.5 434.5 317.414 431.707 316 431C314 430 307.928 428.046 307 426.5C306.4 425.5 307 424 307.5 423.5C308 423 310.919 424 312.5 424C316.5 424 318.5 424.5 320 422.5C321.2 420.9 319.834 420 319 419.5C315.667 419 310.5 418 308.5 416.5C307.143 415.482 300.667 413.833 298.5 413.5Z" fill="#FEB990"/>
<path d="M251.999 303C269.499 287 292.999 271.5 327.499 270C327.306 270.391 326.919 273.33 327 274.5C327 277.5 329.5 280 331.5 280.5C332.585 280.771 339.549 282.01 342 282.5C344.5 283 355.5 281 356.5 280.5C357.3 280.1 362.5 278 365 277C367 281 372.2 285.7 373 286.5C374.5 288 383 293 393 294.5C394.106 294.666 405 295.5 409 294.5C411 294 416.667 292 419.5 291C426.5 294 447.966 319.277 450.5 323.5C455.6 332 462 349 463.5 355.5C464.654 360.5 467.5 367.5 467.5 379.5C467.5 392 466 395 465.5 397.5C465 400 461.04 411.607 458.5 412.5C440 419 427 430 422.5 431.5C419.463 432.512 404.5 431.5 401 431C398.624 430.661 391.5 429 390 426.5C389.667 423.667 390 409.5 392.5 407C394.5 405 411 399 418 386.5V363V339.5C417.833 339.333 416.5 339.3 412.5 340.5C411 337.5 408.5 333.5 402 331.5C395.5 329.5 367 338 364 339C362.8 339.4 345.5 345 339 350.5C332 345 304.5 330.5 295.5 331C286.767 331.485 278.482 332.093 275.5 335.5C272 339.5 271 337.5 269 337.5C266 337.5 268.5 350 268.5 354.5C268.5 357.193 269 372.5 270.5 377C273.05 384.649 283.333 402.5 290 411C289.5 413.5 284 428.5 276.999 430C261.5 420.5 250 414 242 409.5C238.918 407.767 234.5 403 231 396C225.896 385.792 223.417 382.043 222.499 365.5C222 356.5 224.499 346.5 228.5 337.5C233.721 325.753 237.353 316.391 251.999 303Z" fill="#F86E61" stroke="#F86E61" stroke-linecap="round"/>
</svg>
